<svg width="59" height="59" viewBox="0 0 59 59" fill="none" xmlns="http://www.w3.org/2000/svg">
<path d="M8.35829 50.151L51.2562 31.7627C51.6997 31.5738 52.0778 31.2587 52.3436 30.8566C52.6094 30.4544 52.7511 29.9831 52.7511 29.501C52.7511 29.019 52.6094 28.5476 52.3436 28.1455C52.0778 27.7434 51.6997 27.4283 51.2562 27.2394L8.35829 8.85104C7.98684 8.68903 7.5809 8.62203 7.17708 8.65611C6.77327 8.69018 6.38429 8.82425 6.04524 9.04622C5.70619 9.26818 5.42773 9.57107 5.23499 9.92755C5.04225 10.284 4.94129 10.6829 4.94121 11.0881L4.91663 22.421C4.91663 23.6502 5.82621 24.7073 7.05538 24.8548L41.7916 29.501L7.05538 34.1227C5.82621 34.2948 4.91663 35.3519 4.91663 36.581L4.94121 47.914C4.94121 49.6594 6.73579 50.864 8.35829 50.151Z" fill="white"/>
</svg>
